<svg id="f278c0e5-0bb9-467a-af79-393a0980d64e" data-name="logo" xmlns="http://www.w3.org/2000/svg" viewBox="0 0 274 49">
<path d="M73.31,1.47V23.11H93.39A23.81,23.81,0,0,0,73.31,1.47Zm3.93,6c4.57.88,9.42,6.19,10.49,11.3H77.24Z" />
<path d="M90.67,36.12A23.42,23.42,0,0,1,69.94,48.5,23.79,23.79,0,0,1,46.43,24.91,23.72,23.72,0,0,1,69.94,1.4V44.22a19.15,19.15,0,0,0,16.91-10.1Z" />
<path d="M235.43,25.37a24.73,24.73,0,0,1-24.6,22.22H193.68V25.37Z" />
<path d="M136.68,34.12l3.81,2A23.42,23.42,0,0,1,119.77,48.5a24,24,0,0,1-2.41-.12l-1-.12-.86-.15c-.26,0-.53-.1-.79-.16s-.46-.1-.69-.16A24.13,24.13,0,0,1,98.29,34.52c-.09-.21-.19-.43-.28-.66s-.19-.46-.27-.68l-.27-.76c-.08-.26-.17-.54-.25-.81,0,0,0,0,0,0-.18-.6-.33-1.2-.46-1.82a22.83,22.83,0,0,1-.51-4.86,23.14,23.14,0,0,1,.51-4.8,23.49,23.49,0,0,1,20.6-18.58,24,24,0,0,1,2.41-.13,23.47,23.47,0,0,1,18.36,8.78h0a23.32,23.32,0,0,1,2.36,3.58l-3.81,2c-.05-.1-.11-.19-.16-.28a19.16,19.16,0,0,0-11.3-9,18.9,18.9,0,0,0-5.45-.79V44.22a18.9,18.9,0,0,0,5.45-.79,19.16,19.16,0,0,0,11.3-9Z" />
<path d="M190.21,26.18V47.6H175.63V2.24C184,5,190.21,14.67,190.21,26.18Z" />
<path d="M169.88,1.43h0c-.48,0-1,0-1.46,0l-1,0h-.24l-.77,0h-.1l-.9,0-.43,0-.93.08-.15,0c-.3,0-.6.06-.9.11s-.6.08-.9.14a18.38,18.38,0,0,0-2,.46c-.25.07-.49.13-.73.22l-.27.07-.69.24c-.43.15-.87.32-1.28.51a5.63,5.63,0,0,0-.79.36,4.37,4.37,0,0,0-.49.23,17.44,17.44,0,0,0-1.7.93l-.62.4a.55.55,0,0,0-.14.09c-.24.15-.46.31-.69.47s-.63.46-.94.71-.56.44-.82.68-.49.43-.73.66-.73.71-1.08,1.09-.54.6-.8.91c-.1.12-.21.24-.3.36h0c-.23.28-.44.57-.65.85a10.77,10.77,0,0,0-.61.89c-.2.29-.39.6-.58.9s-.36.62-.52.94h0a23.5,23.5,0,0,0-2.33,6.34,23.14,23.14,0,0,0-.51,4.8,22.83,22.83,0,0,0,.51,4.86c.13.62.28,1.22.46,1.82,0,0,0,0,0,0,.08.27.17.55.25.81l.27.76c.08.22.18.46.27.68l.28.66c.25.54.52,1.08.81,1.59a24.13,24.13,0,0,0,13.77,11.34c.33.11.66.2,1,.29l.2,0c.23.06.45.12.69.16s.53.12.79.16c.44.09.89.15,1.34.2.22,0,.46.07.69.09l.61,0,.74,0h.73c.78,0,1.54-.07,2.3-.15h0a26.24,26.24,0,0,0,3.91-.75V1.66C171.54,1.54,170.72,1.47,169.88,1.43Zm-2.61,42.79h-1a18.75,18.75,0,0,1-5.42-.79,19.11,19.11,0,0,1-11.29-9,.75.75,0,0,1-.07-.12c-.06-.13-.12-.27-.17-.41s-.19-.46-.28-.68-.18-.5-.26-.76-.17-.54-.26-.81c0,0,0,0,0,0-.18-.6-.33-1.2-.46-1.82a22.83,22.83,0,0,1-.51-4.86,23.14,23.14,0,0,1,.51-4.8,23.63,23.63,0,0,1,1.37-4.37,1.71,1.71,0,0,1,.13-.23,19.11,19.11,0,0,1,11.29-9,18.75,18.75,0,0,1,5.42-.79h1Z" />
<path d="M.35,26.18V47.6H14.94V2.24C6.53,5,.35,14.67.35,26.18Z" />
<path d="M44.59,13.77l-3.53,1.87a.63.63,0,0,0-.07-.12A19.15,19.15,0,0,0,24.28,5.68h-1V47.6H18.17V1.66a24.32,24.32,0,0,1,2.52-.23h0c.49,0,1,0,1.47,0h1.86a23.39,23.39,0,0,1,18.18,8.78h0A22.07,22.07,0,0,1,44.59,13.77Z" />
<path d="M224.92.5a24.65,24.65,0,0,0-24.4,21.34h41.41V.5Zm11.9,16.79H206.75C209,10.76,216,5.05,224.82,5.05h12Z" />
<path d="M266.29,17.84V.85L245.53,18.38h3.23V31A17.53,17.53,0,0,0,266.29,48.5v-26h7.36V17.84Zm-4.54,24.07c-4.82,0-8.73-5.08-8.73-11.34V22.45h8.73Z" />
</svg>